<svg width="95" height="167" viewBox="0 0 95 167" fill="none" xmlns="http://www.w3.org/2000/svg">
<path d="M69.707 65.7756C66.7143 71.1902 62.1658 77.411 55.9897 84.4483L4.24561 138.846V167H94.3268V164H7.24561V140.045L58.2046 86.4726C70.7629 72.1721 77.042 60.8116 77.042 52.3911C77.042 45.5675 75.5539 40.3772 72.5776 36.8203C69.6014 33.2633 65.2822 31.4848 59.6201 31.4848C54.0306 31.4848 49.4937 33.8803 46.0093 38.6713C42.5249 43.3897 40.7827 49.3059 40.7827 56.4199H3.979C3.979 55.4117 4.00513 54.4117 4.05737 53.4199C4.50922 44.8425 6.9149 36.8774 11.2744 29.5248C16.138 21.2495 22.889 14.7888 31.5273 10.143C40.1657 5.49717 49.8203 3.17426 60.4912 3.17426C74.364 3.17426 85.6425 5.76854 94.3268 10.9571V7.50088C85.2823 2.55161 73.9379 0.174255 60.4912 0.174255C49.369 0.174255 39.2192 2.59985 30.1064 7.50088C20.997 12.4001 13.839 19.2424 8.69092 27.9999C3.54899 36.6741 0.979004 46.1675 0.979004 56.4199V59.4199H43.7827V56.4199C43.7827 49.8077 45.3946 44.5538 48.4226 40.4535L48.4291 40.4447L48.4355 40.4358C51.395 36.3666 55.0559 34.4848 59.6201 34.4848C64.609 34.4848 67.9955 36.019 70.2768 38.7454C72.6307 41.5585 74.042 45.9493 74.042 52.3911C74.042 55.8911 72.7224 60.3201 69.707 65.7756Z" fill="#C4C4C4"/>
<path d="M62.0508 132.689L78.1504 114.106C84.5566 107.698 89.9542 102.023 94.3268 97.0882V92.5243C89.6649 97.9615 83.5403 104.474 75.9531 112.061L55.4824 135.689H94.3268V132.689H62.0508Z" fill="#C4C4C4"/>
</svg>
