<svg width="96" height="170" viewBox="0 0 96 170" fill="none" xmlns="http://www.w3.org/2000/svg">
<path d="M71.9863 62.1975C69.3194 64.8079 65.0635 66.3774 58.6501 66.3774H38.3372V99.7079H59.1946C65.781 99.7079 70.5321 101.268 73.8207 104.018C76.8346 106.539 78.7341 111.128 78.7341 118.703C78.7341 123.513 77.1177 127.313 73.916 130.339C70.7459 133.264 66.3848 134.867 60.5012 134.867C55.4443 134.867 51.3551 133.322 48.0353 130.31C44.68 127.265 43.1394 123.838 43.1394 119.901V116.901H0.226807V119.901C0.226807 129.371 2.6612 137.931 7.57075 145.49L7.57462 145.496L7.57853 145.502C12.5136 153.022 19.7094 158.845 28.9978 163.033L29.0112 163.039L29.0247 163.045C38.3578 167.142 48.4261 169.178 59.1946 169.178C72.9999 169.178 84.9723 166.663 94.9909 161.512V158.114C85.2183 163.49 73.2862 166.178 59.1946 166.178C48.814 166.178 39.1594 164.218 30.2307 160.298C21.3746 156.305 14.6599 150.825 10.0867 143.856C6.03183 137.613 3.77459 130.628 3.31495 122.901C3.25619 121.913 3.22681 120.913 3.22681 119.901H40.1394C40.1394 124.764 42.0994 128.975 46.0193 132.532C49.9392 136.089 54.7665 137.867 60.5012 137.867C66.9618 137.867 72.1158 136.089 75.9631 132.532C79.8105 128.902 81.7341 124.293 81.7341 118.703C81.7341 110.718 79.7379 105.056 75.7454 101.717C71.7528 98.3775 66.2359 96.7079 59.1946 96.7079H41.3372V69.3774H58.6501C72.3699 69.3774 79.2297 62.6627 79.2297 49.2333C79.2297 44.0068 77.5964 39.7602 74.3298 36.4936C71.0632 33.1544 66.4537 31.4848 60.5012 31.4848C55.6376 31.4848 51.391 32.9003 47.7615 35.7314C44.2045 38.5624 42.426 42.0831 42.426 46.2934H5.7312C5.7312 45.28 5.76543 44.28 5.83389 43.2934C6.32939 36.1523 8.61808 29.7117 12.7 23.9716C17.3458 17.4384 23.7701 12.357 31.9729 8.72748C40.2483 5.02533 49.3222 3.17426 59.1946 3.17426C73.6679 3.17426 85.6 5.88652 94.9909 11.3111V7.87858C85.2794 2.6857 73.2914 0.174255 59.1946 0.174255C48.9405 0.174255 39.4465 2.09864 30.7542 5.98614C22.1206 9.80721 15.2486 15.211 10.2551 22.233C5.23257 29.296 2.7312 37.3497 2.7312 46.2934V49.2934H45.426V46.2934C45.426 43.0819 46.719 40.3998 49.6182 38.0879C52.6869 35.6982 56.2709 34.4848 60.5012 34.4848C65.8797 34.4848 69.6276 35.9769 72.1853 38.5915L72.1969 38.6033L72.2085 38.6149C74.8368 41.2432 76.2297 44.6885 76.2297 49.2333C76.2297 55.4691 74.6413 59.5987 71.9863 62.1975Z" fill="#C4C4C4"/>
</svg>
