<svg width="92" height="168" viewBox="0 0 92 168" fill="none" xmlns="http://www.w3.org/2000/svg">
<path d="M58.7881 167.178C70.3659 167.178 80.566 164.883 89.2859 160.175C90.0385 159.769 90.7765 159.348 91.5 158.911V155.368C90.3304 156.135 89.1173 156.857 87.8608 157.536C79.658 161.964 69.9671 164.178 58.7881 164.178C48.8431 164.178 39.5151 162.145 30.8042 158.08C22.0933 153.942 15.2697 148.317 10.3335 141.203C5.95196 134.824 3.54362 127.73 3.10847 119.921C3.06759 119.187 3.04413 118.447 3.03808 117.701C3.03597 117.442 3.03597 117.182 3.03808 116.921H39.8418C40.2047 122.728 42.0558 127.338 45.395 130.749C48.7342 134.161 53.126 135.867 58.5703 135.867C70.9108 135.867 77.081 126.721 77.081 108.428C77.081 91.5139 69.5316 83.0571 54.4326 83.0571C45.8669 83.0571 39.4788 85.8155 35.2685 91.3325L6.0869 84.4726L15.7778 3.46088H91.5V0.460876H13.1153L2.78958 86.7793L36.4742 94.6976L37.6534 93.1525C41.1633 88.5534 46.559 86.0571 54.4326 86.0571C61.426 86.0571 66.1478 87.9999 69.181 91.3976C72.2719 94.8601 74.081 100.355 74.081 108.428C74.081 117.331 72.5624 123.481 69.9664 127.33C67.5121 130.968 63.8817 132.867 58.5703 132.867C53.8092 132.867 50.2329 131.404 47.539 128.651C44.8074 125.86 43.1642 121.986 42.8359 116.734L42.6601 113.921H0.0621721L0.0381738 116.897C-0.0392031 126.491 2.56456 135.191 7.86063 142.901L7.86466 142.907L7.86872 142.913C13.1364 150.504 20.3881 156.454 29.517 160.79L29.5263 160.794L29.5355 160.799C38.6576 165.056 48.4203 167.178 58.7881 167.178Z" fill="#C4C4C4"/>
<path d="M45.611 58.4483L48.2897 34.9892H91.5V31.9892H45.6128L42.0195 63.4575C42.9794 62.8975 44.0471 62.3621 45.2224 61.8511C47.247 60.971 49.5911 60.1635 52.2549 59.4286C56.5378 58.2672 60.7117 57.6865 64.7768 57.6865C75.3298 57.6865 84.2376 59.7879 91.5 63.9907V60.5629C84.0057 56.615 75.0585 54.6865 64.7768 54.6865C60.4235 54.6865 55.9853 55.3087 51.4697 56.5332L51.4571 56.5367C49.345 57.1193 47.3932 57.7548 45.611 58.4483Z" fill="#C4C4C4"/>
</svg>
